<svg width="14" height="14" viewBox="0 0 14 14" fill="none" xmlns="http://www.w3.org/2000/svg">
<path d="M13.4946 14H3.34312C3.21742 14 3.09686 13.9501 3.00798 13.8612C2.9191 13.7723 2.86916 13.6517 2.86916 13.526V3.97688C2.86858 3.91434 2.88042 3.85231 2.904 3.79438C2.92758 3.73645 2.96242 3.68378 3.00651 3.63942C3.0506 3.59506 3.10305 3.55989 3.16084 3.53596C3.21862 3.51203 3.28058 3.49981 3.34312 3.5H13.4946C13.5571 3.5 13.6189 3.51236 13.6766 3.53636C13.7343 3.56036 13.7867 3.59553 13.8308 3.63985C13.8748 3.68417 13.9097 3.73677 13.9333 3.79461C13.9569 3.85245 13.9689 3.91439 13.9685 3.97688V13.526C13.9682 13.6516 13.9181 13.772 13.8293 13.8608C13.7405 13.9496 13.6202 13.9996 13.4946 14V14ZM3.81854 13.0506H13.0192V4.44646H3.81854V13.0506Z" fill="#AAAAAA"/>
<path d="M8.02689 6.45018L8.29668 6.18039C8.32377 6.15327 8.35593 6.13176 8.39134 6.11708C8.42675 6.1024 8.4647 6.09485 8.50303 6.09485C8.54136 6.09485 8.57932 6.1024 8.61472 6.11708C8.65013 6.13176 8.6823 6.15327 8.70939 6.18039L11.0748 8.54435C11.1019 8.57144 11.1234 8.6036 11.1381 8.63901C11.1528 8.67442 11.1603 8.71237 11.1603 8.7507C11.1603 8.78903 11.1528 8.82699 11.1381 8.86239C11.1234 8.8978 11.1019 8.92997 11.0748 8.95706L8.70939 11.3225C8.6823 11.3496 8.65013 11.3711 8.61472 11.3858C8.57932 11.4005 8.54136 11.408 8.50303 11.408C8.4647 11.408 8.42675 11.4005 8.39134 11.3858C8.35593 11.3711 8.32377 11.3496 8.29668 11.3225L8.02689 11.0527C7.99888 11.0255 7.97662 10.993 7.96142 10.957C7.94622 10.9211 7.93838 10.8824 7.93838 10.8434C7.93838 10.8044 7.94622 10.7657 7.96142 10.7298C7.97662 10.6939 7.99888 10.6613 8.02689 10.6341L9.49251 9.23706H6.13835C6.06099 9.23706 5.9868 9.20633 5.93211 9.15163C5.87741 9.09693 5.84668 9.02275 5.84668 8.94539V8.55602C5.84668 8.47866 5.87741 8.40447 5.93211 8.34978C5.9868 8.29508 6.06099 8.26435 6.13835 8.26435H9.49251L8.03126 6.86727C8.0032 6.84039 7.98078 6.80819 7.96533 6.77253C7.94989 6.73688 7.94172 6.6985 7.94131 6.65964C7.9409 6.62079 7.94826 6.58225 7.96296 6.54628C7.97766 6.51031 7.99939 6.47764 8.02689 6.45018V6.45018Z" fill="#AAAAAA"/>
<path d="M3.34251 10.5H0.473967C0.41148 10.5 0.349609 10.4876 0.291915 10.4636C0.234221 10.4396 0.181842 10.4045 0.137793 10.3602C0.0937433 10.3158 0.0588927 10.2632 0.0352463 10.2054C0.0115999 10.1476 -0.000375562 10.0856 8.97521e-06 10.0231V0.473958C0.000393613 0.348375 0.0504519 0.228045 0.139253 0.139244C0.228054 0.0504429 0.348384 0.000384637 0.473967 0L10.6254 0C10.7511 0 10.8717 0.0499348 10.9606 0.138819C11.0494 0.227704 11.0994 0.348257 11.0994 0.473958V3.72312C11.103 3.78767 11.0933 3.85228 11.0711 3.91298C11.0489 3.97368 11.0145 4.02922 10.97 4.07618C10.9256 4.12314 10.8721 4.16055 10.8127 4.18611C10.7533 4.21168 10.6893 4.22486 10.6247 4.22486C10.56 4.22486 10.4961 4.21168 10.4367 4.18611C10.3773 4.16055 10.3238 4.12314 10.2793 4.07618C10.2349 4.02922 10.2005 3.97368 10.1783 3.91298C10.1561 3.85228 10.1464 3.78767 10.15 3.72312V0.952292H0.949384V9.55646H3.34251C3.40706 9.55288 3.47166 9.5625 3.53236 9.58474C3.59307 9.60698 3.6486 9.64136 3.69556 9.68579C3.74252 9.73022 3.77993 9.78377 3.8055 9.84315C3.83106 9.90253 3.84425 9.9665 3.84425 10.0311C3.84425 10.0958 3.83106 10.1598 3.8055 10.2191C3.77993 10.2785 3.74252 10.3321 3.69556 10.3765C3.6486 10.4209 3.59307 10.4553 3.53236 10.4776C3.47166 10.4998 3.40706 10.5094 3.34251 10.5058V10.5Z" fill="#AAAAAA"/>
</svg>